<?xml version="1.0" standalone="no"?>
<!DOCTYPE svg PUBLIC "-//W3C//DTD SVG 20010904//EN"
 "http://www.w3.org/TR/2001/REC-SVG-20010904/DTD/svg10.dtd">
<svg version="1.0" xmlns="http://www.w3.org/2000/svg"
 width="600.000000pt" height="338.000000pt" viewBox="0 0 600.000000 338.000000"
 preserveAspectRatio="xMidYMid meet">

<g transform="translate(0.000000,338.000000) scale(0.100000,-0.100000)"
fill="#000000" stroke="none">
<path d="M2545 2703 c-55 -205 -87 -305 -102 -323 -56 -67 -214 -106 -403 -97
-177 7 -284 56 -353 160 -52 78 -64 133 -43 198 25 74 60 126 135 197 l66 63
-85 -32 c-47 -17 -101 -37 -120 -44 -142 -53 -297 -135 -465 -248 -443 -296
-640 -680 -546 -1069 36 -150 145 -341 270 -472 128 -133 380 -306 594 -406
276 -129 324 -134 150 -16 -153 104 -198 149 -240 236 -53 109 -31 211 58 260
37 21 56 24 121 23 159 -3 276 -66 403 -216 l40 -47 0 41 c0 37 6 47 51 88 67
61 135 85 239 85 66 0 90 -5 135 -27 73 -35 158 -106 242 -203 91 -104 144
-185 227 -343 l68 -131 57 114 c125 247 291 454 438 544 88 54 211 64 310 26
97 -39 166 -113 156 -168 -3 -15 24 6 86 69 112 113 182 151 301 164 146 17
229 -21 255 -118 15 -55 6 -106 -31 -181 -37 -72 -89 -120 -242 -223 -65 -43
-117 -80 -117 -83 0 -8 33 3 145 48 368 147 698 388 854 623 122 185 163 313
163 505 1 107 -3 138 -26 215 -68 225 -224 431 -461 608 -142 106 -357 226
-524 293 -229 91 -230 92 -146 8 165 -162 174 -299 28 -440 -72 -70 -186 -104
-348 -104 -158 0 -306 40 -357 97 -10 10 -54 152 -100 321 -45 166 -84 302
-87 302 -3 0 -46 -55 -94 -121 l-89 -120 -41 7 c-54 9 -210 9 -263 0 l-41 -7
-88 118 c-48 65 -90 119 -94 121 -3 1 -42 -131 -86 -295z"/>
</g>
</svg>
